# xmcd
#
# Track frame offsets: 
#        150
#        17250
#        32550
#        57825
#        73125
#        88425
#        99750
#        115575
#        131400
#        155700
#        175650
#        202125
#        221025
#        238650
#        254475
#        261750
#        286200
#        303150
#        320175
#        337200
#
# Disc length: 4651 seconds
#
# Revision: 0
# Processed by: cddbd v1.5.1PL0 Copyright (c) Steve Scherf et al.
# Submitted via: ExactAudioCopy v0.95a5
#
DISCID=28122914
DTITLE=Rolling Stones - Sticky Fingers (Alternate Remaster)
DYEAR=1900
DGENRE=
TTITLE0=Brown Sugar (Early Vocal)
TTITLE1=Sway (No Overdubs)
TTITLE2=Wild Horses (Unplugged)
TTITLE3=Good Time Women (Early Version)
TTITLE4=Silver Train (Early Version)
TTITLE5=You Gotta Move (Mono)
TTITLE6=Bitch (Original 7 in Mono)
TTITLE7=I Got The Blues (Mono)
TTITLE8=Sister Morphine (Basic Stereo)
TTITLE9=All Down The Line (Early Rehearsal)
TTITLE10=Travelin' Man (Unreleased)
TTITLE11=Potted Shrimp (Unreleased Instrumental)
TTITLE12=Aladdin Story (Unreleased Instrumental)
TTITLE13=Leather Jacket (Unreleased Instrumental)
TTITLE14=Wild Horses (1969 Rehearsal)
TTITLE15=Wild Horses (With Graham Parsons)
TTITLE16=Brown Sugar (Different Guitar)
TTITLE17=Brown Sugar (Another Different Mix)
TTITLE18=Brown Sugar (Original 7 in Mono)
TTITLE19=Let It Rock (Original 7 in Mono)
EXTD=
EXTT0=
EXTT1=
EXTT2=
EXTT3=
EXTT4=
EXTT5=
EXTT6=
EXTT7=
EXTT8=
EXTT9=
EXTT10=
EXTT11=
EXTT12=
EXTT13=
EXTT14=
EXTT15=
EXTT16=
EXTT17=
EXTT18=
EXTT19=
PLAYORDER=
